<svg id="Capa_1" enable-background="new 0 0 512 512" height="512" viewBox="0 0 512 512" width="512" xmlns="http://www.w3.org/2000/svg"><g><g><g><g><g><g><g><circle cx="256" cy="256" fill="#ff73a5" r="256"/></g></g></g></g></g></g><path d="m256 55.294-49.277 158.886-98.189 120.117 152.778 152.779.306 24.864c121.647-2.62 222.398-90.092 245.432-205.595z" fill="#ff468c"/><g><path d="m194.214 186.769c0-34.124 61.786-131.475 61.786-131.475s61.786 97.351 61.786 131.475-27.662 61.785-61.786 61.785-61.786-27.662-61.786-61.785z" fill="#8f4cd6"/></g><g><path d="m256 55.294-.001.002v193.259h.001c34.124 0 61.786-27.663 61.786-61.786 0-34.124-61.786-131.475-61.786-131.475z" fill="#613394"/></g><g><path d="m256 272.338c-20.152 0-36.489 16.336-36.489 36.489v67.765c0 7.388 2.196 14.262 5.97 20.008 5.299 8.066 8.365 17.391 8.365 27.042v87.415c7.302.624 14.69.943 22.154.943s14.852-.319 22.154-.945v-87.415c0-9.651 3.066-18.976 8.365-27.042 3.774-5.745 5.97-12.62 5.97-20.008v-67.765c0-20.151-16.337-36.487-36.489-36.487z" fill="#a7e340"/></g><g><path d="m256 272.338-.001 239.662h.001c7.464 0 14.852-.319 22.154-.945v-87.415c0-9.651 3.066-18.976 8.365-27.042 3.774-5.745 5.97-12.62 5.97-20.008v-67.765c0-20.151-16.337-36.487-36.489-36.487z" fill="#86c42b"/></g><g><path d="m233.528 288.64c-22.011 22.194-124.993 45.657-124.993 45.657s22.611-103.173 44.622-125.367 57.847-22.342 80.041-.331 22.341 57.847.33 80.041z" fill="#b674f2"/></g><g><path d="m278.472 288.64c22.011 22.194 124.993 45.657 124.993 45.657s-22.611-103.173-44.622-125.367-57.847-22.342-80.041-.331c-22.193 22.012-22.341 57.847-.33 80.041z" fill="#8f4cd6"/></g><g><path d="m258.273 263.242h-4.546c-12.235 0-22.154-9.919-22.154-22.154v-53.817c0-12.235 9.919-22.154 22.154-22.154h4.546c12.235 0 22.154 9.919 22.154 22.154v53.817c0 12.236-9.919 22.154-22.154 22.154z" fill="#7a3eb5"/></g><g><path d="m258.273 165.118h-2.274v98.125h2.274c12.235 0 22.154-9.918 22.154-22.154v-53.817c0-12.236-9.919-22.154-22.154-22.154z" fill="#4b1b7a"/></g><g><path d="m310.124 289.353c0 29.892-54.124 115.17-54.124 115.17s-54.124-85.278-54.124-115.17 24.232-54.124 54.124-54.124 54.124 24.233 54.124 54.124z" fill="#a260e5"/></g><g><path d="m310.124 289.353c0-29.892-24.232-54.124-54.124-54.124 0 0 0 0-.001 0v169.292l.001.001c0 .001 54.124-85.277 54.124-115.169z" fill="#7a3eb5"/></g></g></svg>